<svg width="61" height="61" viewBox="0 0 61 61" fill="none" xmlns="http://www.w3.org/2000/svg">
<path fill-rule="evenodd" clip-rule="evenodd" d="M46.3956 49.8302C42.0787 53.4136 36.5332 55.5682 30.4844 55.5682C16.7178 55.5682 5.55781 44.4082 5.55781 30.6416C5.55781 24.5928 7.71234 19.0472 11.2958 14.7304L46.3956 49.8302ZM49.9515 46.2112L14.9148 11.1745C19.1808 7.7582 24.594 5.71504 30.4844 5.71504C44.2509 5.71504 55.4109 16.875 55.4109 30.6416C55.4109 36.532 53.3678 41.9452 49.9515 46.2112ZM60.4844 30.6416C60.4844 47.2101 47.0529 60.6416 30.4844 60.6416C13.9158 60.6416 0.484375 47.2101 0.484375 30.6416C0.484375 14.0731 13.9158 0.641602 30.4844 0.641602C47.0529 0.641602 60.4844 14.0731 60.4844 30.6416Z" fill="#F3A333"/>
</svg>
