<svg width="73" height="68" viewBox="0 0 73 68" fill="none" xmlns="http://www.w3.org/2000/svg">
<path d="M67.3098 37.1951C70.8483 33.2468 73 28.0329 73 22.3171C73 9.99164 62.9949 2.03122e-06 50.6531 0C45.2822 0 40.3538 1.89217 36.5 5.04549C32.6462 1.89217 27.7178 2.03122e-06 22.3469 0C10.0051 0 1.01697e-06 9.99173 0 22.3171C0 29.6212 3.51362 36.1058 8.94505 40.1771L36.8053 68L67.6515 37.1951H67.3098Z" fill="black" fill-opacity="0.15"/>
<path d="M67.1996 37.0964L66.9786 37.343H67.2941L36.8053 67.791L9.04957 40.0724L9.04215 40.065L9.03376 40.0587C3.63796 36.0142 0.147916 29.5726 0.147916 22.3171C0.147917 10.0736 10.0866 0.147916 22.3469 0.147916C27.6824 0.147918 32.578 2.02749 36.4063 5.15997L36.5 5.23661L36.5937 5.15997C40.422 2.02749 45.3176 0.147916 50.6531 0.147916C62.9134 0.147918 72.8521 10.0735 72.8521 22.3171C72.8521 27.9951 70.7148 33.1742 67.1996 37.0964Z" stroke="#FDEABF" stroke-opacity="0.15" stroke-width="0.295831"/>
</svg>
