<svg width="73" height="68" viewBox="0 0 73 68" fill="none" xmlns="http://www.w3.org/2000/svg">
<path d="M67.3098 37.1951C70.8483 33.2468 73 28.0329 73 22.3171C73 9.99164 62.9949 2.03122e-06 50.6531 0C45.2822 0 40.3538 1.89217 36.5 5.04549C32.6462 1.89217 27.7178 2.03122e-06 22.3469 0C10.0051 0 1.01697e-06 9.99173 0 22.3171C0 29.6212 3.51362 36.1058 8.94505 40.1771L36.8053 68L67.6515 37.1951H67.3098Z" fill="black" fill-opacity="0.15"/>
<path d="M66.1928 36.194L63.9512 38.6951H64.0267L36.8053 65.8801L10.005 39.1157L9.92978 39.0406L9.84472 38.9768C4.77453 35.1764 1.5 29.1285 1.5 22.3171C1.5 10.822 10.8316 1.5 22.3469 1.5C27.3592 1.5 31.9546 3.26444 35.5501 6.2064L36.5 6.98363L37.4499 6.2064C41.0454 3.26444 45.6408 1.5 50.6531 1.5C62.1684 1.5 71.5 10.822 71.5 22.3171C71.5 27.6491 69.4944 32.51 66.1928 36.194Z" stroke="#FDEABF" stroke-opacity="0.15" stroke-width="3"/>
</svg>
