<svg width="31" height="28" viewBox="0 0 31 28" fill="none" xmlns="http://www.w3.org/2000/svg">
<mask id="path-1-inside-1_289_8" fill="white">
<path d="M28 14C28 10.9945 27.0328 8.06872 25.2414 5.65541C23.4499 3.24211 20.9294 1.46938 18.0526 0.599373C15.1757 -0.270633 12.0952 -0.191724 9.26668 0.824432C6.43814 1.84059 4.01169 3.74004 2.34617 6.2419C0.680657 8.74375 -0.13551 11.7152 0.018368 14.7168C0.172246 17.7184 1.288 20.5908 3.20063 22.9092C5.11327 25.2276 7.72123 26.869 10.6389 27.5905C13.5565 28.3121 16.6289 28.0756 19.4017 26.916L17.891 23.3037C15.8937 24.139 13.6805 24.3094 11.5789 23.7896C9.47724 23.2698 7.59866 22.0875 6.22094 20.4175C4.84322 18.7475 4.03952 16.6784 3.92867 14.5163C3.81783 12.3542 4.40574 10.2138 5.60545 8.41164C6.80517 6.60949 8.553 5.24126 10.5905 4.5093C12.6279 3.77734 14.8469 3.7205 16.9192 4.34718C18.9914 4.97387 20.807 6.25081 22.0974 7.98918C23.3878 9.72754 24.0846 11.835 24.0846 14H28Z"/>
</mask>
<path d="M28 14V19C30.7614 19 33 16.7614 33 14L28 14ZM19.4017 26.916L21.3309 31.5288C23.8785 30.4633 25.08 27.5344 24.0145 24.9868L19.4017 26.916ZM17.891 23.3037L22.5038 21.3745C21.9922 20.1511 21.0155 19.1811 19.7886 18.6778C18.5618 18.1745 17.1852 18.1792 15.9618 18.6909L17.891 23.3037ZM24.0846 14H19.0846C19.0846 16.7614 21.3231 19 24.0846 19V14ZM33 14C33 9.92106 31.6873 5.9504 29.2561 2.6752L21.2266 8.63562C22.3782 10.187 23 12.0679 23 14L33 14ZM29.2561 2.6752C26.8249 -0.599996 23.4042 -3.00584 19.4999 -4.18657L16.6052 5.38531C18.4546 5.9446 20.075 7.08421 21.2266 8.63562L29.2561 2.6752ZM19.4999 -4.18657C15.5956 -5.36729 11.4149 -5.2602 7.57621 -3.88113L10.9572 5.52999C12.7755 4.87675 14.7558 4.82602 16.6052 5.38531L19.4999 -4.18657ZM7.57621 -3.88113C3.73747 -2.50206 0.444438 0.0757662 -1.81591 3.47114L6.50826 9.01265C7.57895 7.40431 9.1388 6.18324 10.9572 5.52999L7.57621 -3.88113ZM-1.81591 3.47114C-4.07625 6.86652 -5.18391 10.8992 -4.97507 14.9728L5.01181 14.4608C4.91289 12.5312 5.43757 10.621 6.50826 9.01265L-1.81591 3.47114ZM-4.97507 14.9728C-4.76624 19.0464 -3.252 22.9446 -0.656286 26.091L7.05755 19.7273C5.828 18.2369 5.11073 16.3904 5.01181 14.4608L-4.97507 14.9728ZM-0.656286 26.091C1.93943 29.2375 5.47881 31.465 9.43845 32.4443L11.8393 22.7368C9.96365 22.2729 8.2871 21.2177 7.05755 19.7273L-0.656286 26.091ZM9.43845 32.4443C13.3981 33.4236 17.5678 33.1026 21.3309 31.5288L17.4725 22.3031C15.69 23.0486 13.7149 23.2006 11.8393 22.7368L9.43845 32.4443ZM24.0145 24.9868L22.5038 21.3745L13.2781 25.2329L14.7889 28.8451L24.0145 24.9868ZM15.9618 18.6909C14.9548 19.112 13.8389 19.1979 12.7793 18.9359L10.3785 28.6434C13.5221 29.4209 16.8325 29.166 19.8202 27.9165L15.9618 18.6909ZM12.7793 18.9359C11.7197 18.6738 10.7725 18.0777 10.0779 17.2357L2.36402 23.5994C4.42482 26.0974 7.23482 27.8659 10.3785 28.6434L12.7793 18.9359ZM10.0779 17.2357C9.38322 16.3937 8.978 15.3504 8.92212 14.2603L-1.06477 14.7723C-0.898971 18.0064 0.30322 21.1013 2.36402 23.5994L10.0779 17.2357ZM8.92212 14.2603C8.86623 13.1702 9.16265 12.091 9.76753 11.1824L1.44337 5.64089C-0.351175 8.33656 -1.23057 11.5382 -1.06477 14.7723L8.92212 14.2603ZM9.76753 11.1824C10.3724 10.2738 11.2537 9.58391 12.2809 9.21486L8.9 -0.196261C5.85233 0.898615 3.23791 2.94521 1.44337 5.64089L9.76753 11.1824ZM12.2809 9.21486C13.3082 8.84581 14.427 8.81715 15.4718 9.13312L18.3665 -0.438755C15.2668 -1.37616 11.9477 -1.29114 8.9 -0.196261L12.2809 9.21486ZM15.4718 9.13312C16.5167 9.44909 17.4321 10.0929 18.0827 10.9694L26.1122 5.00897C24.182 2.40871 21.4662 0.498649 18.3665 -0.438755L15.4718 9.13312ZM18.0827 10.9694C18.7333 11.8459 19.0846 12.9084 19.0846 14H29.0846C29.0846 10.7616 28.0424 7.60923 26.1122 5.00897L18.0827 10.9694ZM24.0846 19H28V9H24.0846V19Z" fill="#8A817F" mask="url(#path-1-inside-1_289_8)"/>
<path d="M22 11L25.5 16L29 11" stroke="#8A817F" stroke-width="3" stroke-linecap="round"/>
</svg>
